<svg id="visual" viewBox="0 0 900 600" width="900" height="600" xmlns="http://www.w3.org/2000/svg" xmlns:xlink="http://www.w3.org/1999/xlink" version="1.1"><rect x="0" y="0" width="900" height="600" fill="#110021"></rect><defs><linearGradient id="grad1_0" x1="33.3%" y1="0%" x2="100%" y2="100%"><stop offset="20%" stop-color="#f993bc" stop-opacity="1"></stop><stop offset="80%" stop-color="#f993bc" stop-opacity="1"></stop></linearGradient></defs><defs><linearGradient id="grad1_1" x1="33.3%" y1="0%" x2="100%" y2="100%"><stop offset="20%" stop-color="#f993bc" stop-opacity="1"></stop><stop offset="80%" stop-color="#d27ca8" stop-opacity="1"></stop></linearGradient></defs><defs><linearGradient id="grad1_2" x1="33.3%" y1="0%" x2="100%" y2="100%"><stop offset="20%" stop-color="#ad6693" stop-opacity="1"></stop><stop offset="80%" stop-color="#d27ca8" stop-opacity="1"></stop></linearGradient></defs><defs><linearGradient id="grad1_3" x1="33.3%" y1="0%" x2="100%" y2="100%"><stop offset="20%" stop-color="#ad6693" stop-opacity="1"></stop><stop offset="80%" stop-color="#89527d" stop-opacity="1"></stop></linearGradient></defs><defs><linearGradient id="grad1_4" x1="33.3%" y1="0%" x2="100%" y2="100%"><stop offset="20%" stop-color="#673e67" stop-opacity="1"></stop><stop offset="80%" stop-color="#89527d" stop-opacity="1"></stop></linearGradient></defs><defs><linearGradient id="grad1_5" x1="33.3%" y1="0%" x2="100%" y2="100%"><stop offset="20%" stop-color="#673e67" stop-opacity="1"></stop><stop offset="80%" stop-color="#472a4f" stop-opacity="1"></stop></linearGradient></defs><defs><linearGradient id="grad1_6" x1="33.3%" y1="0%" x2="100%" y2="100%"><stop offset="20%" stop-color="#291838" stop-opacity="1"></stop><stop offset="80%" stop-color="#472a4f" stop-opacity="1"></stop></linearGradient></defs><defs><linearGradient id="grad1_7" x1="33.3%" y1="0%" x2="100%" y2="100%"><stop offset="20%" stop-color="#291838" stop-opacity="1"></stop><stop offset="80%" stop-color="#110021" stop-opacity="1"></stop></linearGradient></defs><defs><linearGradient id="grad2_0" x1="0%" y1="0%" x2="66.7%" y2="100%"><stop offset="20%" stop-color="#f993bc" stop-opacity="1"></stop><stop offset="80%" stop-color="#f993bc" stop-opacity="1"></stop></linearGradient></defs><defs><linearGradient id="grad2_1" x1="0%" y1="0%" x2="66.7%" y2="100%"><stop offset="20%" stop-color="#d27ca8" stop-opacity="1"></stop><stop offset="80%" stop-color="#f993bc" stop-opacity="1"></stop></linearGradient></defs><defs><linearGradient id="grad2_2" x1="0%" y1="0%" x2="66.7%" y2="100%"><stop offset="20%" stop-color="#d27ca8" stop-opacity="1"></stop><stop offset="80%" stop-color="#ad6693" stop-opacity="1"></stop></linearGradient></defs><defs><linearGradient id="grad2_3" x1="0%" y1="0%" x2="66.7%" y2="100%"><stop offset="20%" stop-color="#89527d" stop-opacity="1"></stop><stop offset="80%" stop-color="#ad6693" stop-opacity="1"></stop></linearGradient></defs><defs><linearGradient id="grad2_4" x1="0%" y1="0%" x2="66.7%" y2="100%"><stop offset="20%" stop-color="#89527d" stop-opacity="1"></stop><stop offset="80%" stop-color="#673e67" stop-opacity="1"></stop></linearGradient></defs><defs><linearGradient id="grad2_5" x1="0%" y1="0%" x2="66.7%" y2="100%"><stop offset="20%" stop-color="#472a4f" stop-opacity="1"></stop><stop offset="80%" stop-color="#673e67" stop-opacity="1"></stop></linearGradient></defs><defs><linearGradient id="grad2_6" x1="0%" y1="0%" x2="66.7%" y2="100%"><stop offset="20%" stop-color="#472a4f" stop-opacity="1"></stop><stop offset="80%" stop-color="#291838" stop-opacity="1"></stop></linearGradient></defs><defs><linearGradient id="grad2_7" x1="0%" y1="0%" x2="66.7%" y2="100%"><stop offset="20%" stop-color="#110021" stop-opacity="1"></stop><stop offset="80%" stop-color="#291838" stop-opacity="1"></stop></linearGradient></defs><g transform="translate(900, 0)"><path d="M0 486.7C-51.5 447.8 -103 408.8 -160.7 388C-218.5 367.2 -282.5 364.6 -334.5 334.5C-386.4 304.3 -426.3 246.6 -449.7 186.3C-473.1 125.9 -479.9 63 -486.7 0L0 0Z" fill="#1c102c"></path><path d="M0 425.9C-45.1 391.8 -90.1 357.7 -140.6 339.5C-191.2 321.3 -247.2 319 -292.7 292.7C-338.1 266.3 -373 215.8 -393.5 163C-413.9 110.2 -419.9 55.1 -425.9 0L0 0Z" fill="#382143"></path><path d="M0 365.1C-38.6 335.8 -77.2 306.6 -120.5 291C-163.9 275.4 -211.9 273.5 -250.8 250.8C-289.8 228.2 -319.7 185 -337.3 139.7C-354.8 94.5 -359.9 47.2 -365.1 0L0 0Z" fill="#56345b"></path><path d="M0 304.2C-32.2 279.9 -64.4 255.5 -100.5 242.5C-136.6 229.5 -176.6 227.9 -209 209C-241.5 190.2 -266.5 154.1 -281.1 116.4C-295.7 78.7 -299.9 39.4 -304.2 0L0 0Z" fill="#774772"></path><path d="M0 243.4C-25.7 223.9 -51.5 204.4 -80.4 194C-109.2 183.6 -141.3 182.3 -167.2 167.2C-193.2 152.2 -213.2 123.3 -224.8 93.1C-236.5 63 -240 31.5 -243.4 0L0 0Z" fill="#9b5c89"></path><path d="M0 182.5C-19.3 167.9 -38.6 153.3 -60.3 145.5C-81.9 137.7 -105.9 136.7 -125.4 125.4C-144.9 114.1 -159.9 92.5 -168.6 69.9C-177.4 47.2 -180 23.6 -182.5 0L0 0Z" fill="#c0719e"></path><path d="M0 121.7C-12.9 111.9 -25.7 102.2 -40.2 97C-54.6 91.8 -70.6 91.2 -83.6 83.6C-96.6 76.1 -106.6 61.7 -112.4 46.6C-118.3 31.5 -120 15.7 -121.7 0L0 0Z" fill="#e687b2"></path><path d="M0 60.8C-6.4 56 -12.9 51.1 -20.1 48.5C-27.3 45.9 -35.3 45.6 -41.8 41.8C-48.3 38 -53.3 30.8 -56.2 23.3C-59.1 15.7 -60 7.9 -60.8 0L0 0Z" fill="#f993bc"></path></g><g transform="translate(0, 600)"><path d="M0 -486.7C70.1 -487 140.3 -487.2 186.3 -449.7C232.3 -412.2 254.1 -337.1 285.7 -285.7C317.2 -234.3 358.4 -206.7 393.6 -163C428.7 -119.4 457.7 -59.7 486.7 0L0 0Z" fill="#1c102c"></path><path d="M0 -425.9C61.4 -426.1 122.7 -426.3 163 -393.5C203.2 -360.7 222.4 -294.9 250 -250C277.6 -205 313.6 -180.8 344.4 -142.6C375.1 -104.5 400.5 -52.2 425.9 0L0 0Z" fill="#382143"></path><path d="M0 -365.1C52.6 -365.2 105.2 -365.4 139.7 -337.3C174.2 -309.2 190.6 -252.8 214.3 -214.3C237.9 -175.7 268.8 -155 295.2 -122.3C321.5 -89.5 343.3 -44.8 365.1 0L0 0Z" fill="#56345b"></path><path d="M0 -304.2C43.8 -304.4 87.7 -304.5 116.4 -281.1C145.2 -257.6 158.8 -210.7 178.5 -178.5C198.3 -146.4 224 -129.2 246 -101.9C267.9 -74.6 286.1 -37.3 304.2 0L0 0Z" fill="#774772"></path><path d="M0 -243.4C35.1 -243.5 70.1 -243.6 93.1 -224.8C116.1 -206.1 127.1 -168.5 142.8 -142.8C158.6 -117.1 179.2 -103.3 196.8 -81.5C214.4 -59.7 228.9 -29.8 243.4 0L0 0Z" fill="#9b5c89"></path><path d="M0 -182.5C26.3 -182.6 52.6 -182.7 69.9 -168.6C87.1 -154.6 95.3 -126.4 107.1 -107.1C119 -87.9 134.4 -77.5 147.6 -61.1C160.8 -44.8 171.6 -22.4 182.5 0L0 0Z" fill="#c0719e"></path><path d="M0 -121.7C17.5 -121.7 35.1 -121.8 46.6 -112.4C58.1 -103.1 63.5 -84.3 71.4 -71.4C79.3 -58.6 89.6 -51.7 98.4 -40.8C107.2 -29.8 114.4 -14.9 121.7 0L0 0Z" fill="#e687b2"></path><path d="M0 -60.8C8.8 -60.9 17.5 -60.9 23.3 -56.2C29 -51.5 31.8 -42.1 35.7 -35.7C39.7 -29.3 44.8 -25.8 49.2 -20.4C53.6 -14.9 57.2 -7.5 60.8 0L0 0Z" fill="#f993bc"></path></g></svg>